<svg width="125" height="16" viewBox="0 0 125 16" fill="none" xmlns="http://www.w3.org/2000/svg">
<path d="M27.2884 4.35827C27.0613 4.35827 26.8692 4.50675 26.808 4.7251L25.5591 9.31045H23.8647L24.7293 6.12254C24.8254 5.78191 24.6071 5.50242 24.249 5.50242H22.3275C22.1004 5.50242 21.9082 5.6509 21.8471 5.86925L20.9038 9.31045H19.2269L20.0654 6.12254C20.1614 5.78191 19.9431 5.50242 19.585 5.50242H17.6723C17.4452 5.50242 17.253 5.6509 17.1919 5.86925L16.2486 9.31045H13.0694L15.3403 0.620115C15.4363 0.279488 15.218 0 14.8599 0H12.9384C12.7113 0 12.5192 0.148478 12.4581 0.366828L10.0387 9.31045H7.19144L8.3356 4.97838C8.42294 4.63776 8.21332 4.35827 7.85523 4.35827H5.93375C5.70666 4.35827 5.51452 4.50675 5.45338 4.7251L3.75898 11.0398C3.59303 11.6512 3.39215 12.1141 3.15633 12.4198C2.92052 12.7342 2.51875 12.8914 1.96851 12.8914H1.82876C1.60168 12.8914 1.40953 13.0399 1.34839 13.2582L0.955364 14.7255C0.868023 15.04 1.11258 15.3457 1.43573 15.3457H1.9161C3.2 15.3457 4.20441 15.0312 4.9468 14.3936C5.61932 13.8172 6.13463 12.9438 6.50146 11.7647H9.86405C10.4754 11.7647 10.9645 11.7123 11.3401 11.5988C11.7069 11.4852 12.0301 11.2581 12.3183 10.9C12.4493 11.2581 12.6677 11.494 12.9559 11.5988C13.2441 11.7123 13.6022 11.7647 14.0302 11.7647H16.1089C16.729 11.7647 17.2356 11.7036 17.6111 11.59C17.9867 11.4765 18.3186 11.2232 18.5981 10.8302C18.6767 11.0922 18.8426 11.3193 19.0872 11.494C19.3317 11.6774 19.7073 11.7647 20.2051 11.7647H20.7903C21.4017 11.7647 21.8995 11.7036 22.2838 11.59C22.6681 11.4765 22.9913 11.2232 23.2533 10.8476C23.3319 11.1009 23.4978 11.3193 23.7337 11.494C23.9782 11.6774 24.345 11.7647 24.8429 11.7647H26.9303C27.4893 11.7647 27.9871 11.3891 28.1269 10.8389L29.6728 4.97838C29.7689 4.63776 29.5505 4.35827 29.1924 4.35827H27.2884Z" fill="#637E8E"/>
<path d="M33.3426 2.41842C33.6006 1.45725 34.4719 0.789062 35.4671 0.789062L46.2457 0.789063C47.6925 0.789063 48.7454 2.16185 48.3702 3.55921L45.4674 14.3712C45.2093 15.3324 44.3381 16.0006 43.3429 16.0006H32.5642C31.1174 16.0006 30.0646 14.6278 30.4397 13.2304L33.3426 2.41842Z" fill="#637E8E"/>
<path d="M40.0878 6.56778C39.8003 6.56778 39.5898 6.85031 39.6668 7.12771L40.7141 11.0318C40.7397 11.1346 40.7038 11.2116 40.6679 11.2527C40.6319 11.2989 40.5703 11.3555 40.4625 11.3555H34.9028C34.7077 11.3555 34.5332 11.489 34.4818 11.6791L34.0301 13.3692C33.9582 13.6465 34.1635 13.9188 34.451 13.9188H40.4625C40.9862 13.9188 41.5149 13.7955 41.9513 13.5078C43.0499 12.7835 43.5068 11.5352 43.1885 10.3589L42.2593 6.89141C42.208 6.70134 42.0334 6.56778 41.8383 6.56778H40.0878Z" fill="white"/>
<path d="M38.7171 10.2202C39.0046 10.2202 39.2151 9.94277 39.1381 9.66538L38.0908 5.76126C38.0652 5.65852 38.1011 5.58147 38.137 5.54037C38.173 5.49414 38.2346 5.43763 38.3424 5.43763H43.9021C44.0972 5.43763 44.2718 5.30407 44.3231 5.114L44.7749 3.4188C44.8519 3.1414 44.6414 2.86914 44.3539 2.86914H38.3424C37.8188 2.86914 37.29 2.99243 36.8536 3.2801C35.755 4.00441 35.2981 5.2527 35.6113 6.42907L36.5405 9.89654C36.5918 10.0866 36.7664 10.2202 36.9614 10.2202H38.7171Z" fill="white"/>
<path d="M60.4634 12H59.9501C59.0517 12 58.5034 11.6733 58.2117 11.09C57.6517 11.51 57.0451 11.7667 56.3334 11.7667C54.5251 11.7667 53.6034 10.6817 53.5334 9.11833C53.5217 8.86167 53.5217 8.37167 53.5334 8.115C53.6034 6.55167 54.5601 5.46667 56.3334 5.46667C58.1067 5.46667 59.0984 6.55167 59.1334 8.115C59.1451 8.37167 59.1334 8.83833 59.1334 9.10667V9.865C59.1334 10.6 59.3201 10.9617 60.0434 10.9617H60.4634C60.5334 10.9617 60.5801 11.0083 60.5801 11.0783V11.8833C60.5801 11.9533 60.5334 12 60.4634 12ZM56.3334 10.775C56.8701 10.775 57.4184 10.5067 57.8617 10.075C57.8501 10.005 57.8501 9.94667 57.8501 9.87667V9.095C57.8501 8.80333 57.8617 8.40667 57.8501 8.17333C57.8034 7.05333 57.2434 6.45833 56.3334 6.45833C55.4234 6.45833 54.8634 7.05333 54.8167 8.17333C54.8051 8.40667 54.8051 8.82667 54.8167 9.06C54.8634 10.18 55.4234 10.775 56.3334 10.775ZM67.0013 12H60.188C60.118 12 60.0713 11.9533 60.0713 11.8833V11.0783C60.0713 11.0083 60.118 10.9617 60.188 10.9617H61.4246V4.11333C61.4246 3.93833 61.5296 3.83333 61.7046 3.83333H62.4513C62.6263 3.83333 62.7196 3.93833 62.7196 4.11333V7.38C63.443 7.00667 64.2013 6.63333 64.8663 6.31833C67.1763 5.21 69.113 5.93333 69.113 8.79167V9.87667C69.113 10.6117 69.288 10.9617 70.0113 10.9617H70.443C70.513 10.9617 70.5596 11.0083 70.5596 11.0783V11.8833C70.5596 11.9533 70.513 12 70.443 12H70.198C69.4513 12 68.938 11.7783 68.5996 11.37C68.273 11.7667 67.748 12 67.0013 12ZM62.7196 8.55833V10.9617H66.908C67.6313 10.9617 67.8063 10.6 67.8063 9.9V8.73333C67.8063 6.76167 66.418 6.51667 64.7613 7.42667L62.7196 8.55833ZM78.9469 5.93333H79.7052C79.8802 5.93333 79.9852 6.02667 79.9852 6.20167V9.98167C79.9852 11.405 79.2385 12.1167 77.5935 12.1167C76.8702 12.1167 76.3335 11.9067 75.9952 11.4983C75.6102 11.9067 74.9919 12.1167 74.1169 12.1167C73.4052 12.1167 72.8452 11.8717 72.4952 11.3933C72.1219 11.79 71.5269 12 70.7219 12H70.1619C70.1035 12 70.0452 11.9417 70.0452 11.8717V11.0783C70.0452 11.0083 70.0919 10.9617 70.1619 10.9617H70.7219C71.5385 10.9617 71.7252 10.5883 71.7252 9.84167V6.96C71.7252 6.785 71.8185 6.69167 71.9935 6.69167H72.7519C72.9269 6.69167 73.0202 6.785 73.0202 6.96V9.92333C73.0202 10.67 73.3702 11.0317 74.1169 11.0317C75.0152 11.0317 75.2019 10.6583 75.2019 9.91167V6.96C75.2019 6.785 75.2952 6.69167 75.4702 6.69167H76.2285C76.4035 6.69167 76.4969 6.785 76.4969 6.96V9.91167C76.4969 10.6583 76.7535 11.0317 77.5935 11.0317C78.4919 11.0317 78.6785 10.6583 78.6785 9.91167V6.20167C78.6785 6.02667 78.7719 5.93333 78.9469 5.93333ZM82.8683 12H82.11C81.935 12 81.8417 11.9067 81.8417 11.7317V4.10167C81.8417 3.92667 81.935 3.83333 82.11 3.83333H82.8683C83.0433 3.83333 83.1367 3.92667 83.1367 4.10167V11.7317C83.1367 11.9067 83.0433 12 82.8683 12ZM87.4964 14.9167H85.653C85.478 14.9167 85.373 14.8233 85.373 14.6483V14.0767C85.373 13.9017 85.478 13.7967 85.653 13.7967H87.5197C88.593 13.7967 89.1647 13.0733 89.2347 12H87.7064C85.898 12 84.9764 11.0317 84.9064 9.46833C84.8947 9.21167 84.8947 8.72167 84.9064 8.465C84.9764 6.90167 85.933 5.81667 87.7064 5.81667C89.4797 5.81667 90.5297 6.89 90.5297 8.465V10.9617H91.848C91.918 10.9617 91.9647 11.0083 91.9647 11.0783V11.8833C91.9647 11.9533 91.918 12 91.848 12H90.5297C90.448 13.7733 89.3164 14.9167 87.4964 14.9167ZM87.7064 10.9617H89.2347V8.52333C89.2347 7.40333 88.6164 6.80833 87.7064 6.80833C86.7964 6.80833 86.2364 7.40333 86.1897 8.52333C86.178 8.75667 86.178 9.10667 86.1897 9.34C86.2364 10.4367 86.7964 10.9617 87.7064 10.9617ZM92.441 12H91.566C91.496 12 91.4494 11.9533 91.4494 11.8833V11.0783C91.4494 11.0083 91.496 10.9617 91.566 10.9617H92.3127C93.036 10.9617 93.2227 10.6 93.2227 9.865L93.211 6.20167C93.211 6.02667 93.316 5.92167 93.491 5.92167H94.2494C94.4244 5.92167 94.5177 6.02667 94.5177 6.20167V9.87667C94.5294 11.23 93.8527 12 92.441 12ZM93.3394 13.8317H92.6627C92.511 13.8317 92.4294 13.75 92.4294 13.5983V12.98C92.4294 12.8633 92.5227 12.7583 92.6627 12.7583H93.3394C93.4677 12.7583 93.5727 12.8633 93.5727 12.98V13.5983C93.5727 13.7383 93.4677 13.8317 93.3394 13.8317ZM101.622 15.0333C99.5099 15.0333 98.4016 13.8783 98.4016 11.7783V9.865C98.4016 9.69 98.4949 9.585 98.6699 9.585H99.4283C99.6033 9.585 99.7199 9.69 99.7199 9.865V11.79C99.7199 13.2367 100.432 13.89 101.61 13.89C102.788 13.89 103.5 13.2367 103.5 11.79V4.11333C103.5 3.93833 103.605 3.83333 103.78 3.83333H104.55C104.725 3.83333 104.818 3.93833 104.818 4.11333V9.865C104.818 10.6 105.005 10.9617 105.728 10.9617H106.148C106.218 10.9617 106.265 11.0083 106.265 11.0783V11.8833C106.265 11.9533 106.218 12 106.148 12H105.915C105.448 12 105.087 11.895 104.818 11.72C104.807 13.9717 103.698 15.0333 101.622 15.0333ZM110.238 12.1167C109.456 12.1167 108.791 11.825 108.208 11.3467C107.893 11.7667 107.391 12 106.633 12H105.874C105.804 12 105.758 11.9533 105.758 11.8833V11.0783C105.758 11.0083 105.804 10.9617 105.874 10.9617H106.539C107.263 10.9617 107.438 10.6117 107.438 9.865V8.465C107.473 6.90167 108.464 5.81667 110.238 5.81667C112.011 5.81667 112.979 6.90167 113.038 8.465C113.049 8.65167 113.049 9.28167 113.038 9.88833C113.049 10.635 113.236 10.9617 113.959 10.9617H114.379C114.449 10.9617 114.496 11.0083 114.496 11.0783V11.8833C114.496 11.9533 114.449 12 114.379 12H114.146C113.271 12 112.746 11.685 112.443 11.1483C111.999 11.755 111.264 12.1167 110.238 12.1167ZM110.238 11.125C111.148 11.125 111.708 10.53 111.754 9.41C111.766 9.17667 111.766 8.75667 111.754 8.52333C111.708 7.40333 111.148 6.80833 110.238 6.80833C109.328 6.80833 108.756 7.40333 108.721 8.52333V9.87667C108.721 10.0633 108.709 10.2383 108.686 10.4017C109.129 10.845 109.689 11.125 110.238 11.125ZM122.02 12H114.098C114.028 12 113.982 11.9533 113.982 11.8833V11.0783C113.982 11.0083 114.028 10.9617 114.098 10.9617H116.618L115.417 8.61667C114.18 6.30667 116.618 5.81667 118.147 5.81667C119.675 5.81667 122.102 6.30667 120.865 8.61667L119.675 10.9617H122.02C122.09 10.9617 122.137 11.0083 122.137 11.0783V11.8833C122.137 11.9533 122.09 12 122.02 12ZM116.548 8.16167L117.925 10.9617H118.368L119.745 8.16167C120.27 7.065 118.905 6.90167 118.147 6.90167C117.377 6.90167 116.012 7.065 116.548 8.16167ZM122.609 12H121.734C121.664 12 121.618 11.9533 121.618 11.8833V11.0783C121.618 11.0083 121.664 10.9617 121.734 10.9617H122.481C123.204 10.9617 123.391 10.6 123.391 9.865L123.379 6.20167C123.379 6.02667 123.484 5.92167 123.659 5.92167H124.418C124.593 5.92167 124.686 6.02667 124.686 6.20167V9.87667C124.698 11.23 124.021 12 122.609 12ZM122.574 13.8317H121.898C121.746 13.8317 121.676 13.75 121.676 13.5983V12.98C121.676 12.8633 121.769 12.7583 121.898 12.7583H122.574C122.703 12.7583 122.819 12.8633 122.819 12.98V13.5983C122.819 13.7383 122.703 13.8317 122.574 13.8317ZM124.441 13.8317H123.764C123.613 13.8317 123.531 13.75 123.531 13.5983V12.98C123.531 12.8633 123.624 12.7583 123.764 12.7583H124.441C124.569 12.7583 124.674 12.8633 124.674 12.98V13.5983C124.674 13.7383 124.569 13.8317 124.441 13.8317Z" fill="#637E8E"/>
</svg>
